<?xml version="1.0" encoding="iso-8859-1"?>
<!-- Generator: Adobe Illustrator 19.0.0, SVG Export Plug-In . SVG Version: 6.00 Build 0)  -->
<svg version="1.1" id="Capa_1" xmlns="http://www.w3.org/2000/svg" xmlns:xlink="http://www.w3.org/1999/xlink" x="0px" y="0px"
	 viewBox="0 0 463 463" style="enable-background:new 0 0 463 463;" xml:space="preserve">
<path d="M303.5,416c-4.687,0-8.5-3.813-8.5-8.5s3.813-8.5,8.5-8.5c0.26,0,0.516-0.013,0.769-0.039
	C312.458,398.557,319,391.787,319,383.5V196.175c0-8.9-0.885-17.841-2.631-26.573l-4.229-21.141
	c-1.032-5.158-4.594-9.292-9.225-11.241c-0.794-30.641-7.312-63.042-17.779-87.833C271.69,17.539,252.642,0,231.5,0
	s-40.19,17.539-53.637,49.387c-10.467,24.791-16.985,57.192-17.779,87.833c-4.631,1.949-8.193,6.084-9.225,11.241l-4.229,21.141
	c-1.746,8.732-2.631,17.673-2.631,26.573V383.5c0,8.287,6.542,15.057,14.731,15.461c0.253,0.026,0.509,0.039,0.769,0.039
	c4.687,0,8.5,3.813,8.5,8.5s-3.813,8.5-8.5,8.5c-12.958,0-23.5,10.542-23.5,23.5s10.542,23.5,23.5,23.5h144
	c12.958,0,23.5-10.542,23.5-23.5S316.458,416,303.5,416z M191.682,55.222C198.024,40.2,211.631,15,231.5,15
	c31.01,0,54.499,62.387,56.375,121H175.138C176.058,107.644,182.086,77.949,191.682,55.222z M159,196.175
	c0-7.915,0.787-15.866,2.34-23.632l4.229-21.141c0.047-0.233,0.253-0.402,0.49-0.402h130.883c0.237,0,0.443,0.169,0.49,0.402
	l4.229,21.141c1.553,7.766,2.34,15.717,2.34,23.632V383.5c0,0.275-0.225,0.5-0.5,0.5h-144c-0.275,0-0.5-0.225-0.5-0.5V196.175z
	 M181.403,399h100.195c-1.027,2.638-1.597,5.503-1.597,8.5s0.57,5.862,1.597,8.5H181.403c1.027-2.638,1.597-5.503,1.597-8.5
	S182.43,401.638,181.403,399z M303.5,448h-144c-4.687,0-8.5-3.813-8.5-8.5s3.813-8.5,8.5-8.5h144c4.687,0,8.5,3.813,8.5,8.5
	S308.187,448,303.5,448z"/>
<g>
</g>
<g>
</g>
<g>
</g>
<g>
</g>
<g>
</g>
<g>
</g>
<g>
</g>
<g>
</g>
<g>
</g>
<g>
</g>
<g>
</g>
<g>
</g>
<g>
</g>
<g>
</g>
<g>
</g>
</svg>
