<?xml version="1.0" encoding="iso-8859-1"?>
<!-- Generator: Adobe Illustrator 19.0.0, SVG Export Plug-In . SVG Version: 6.00 Build 0)  -->
<svg version="1.1" id="Capa_1" xmlns="http://www.w3.org/2000/svg" xmlns:xlink="http://www.w3.org/1999/xlink" x="0px" y="0px"
	 viewBox="0 0 60 60" style="enable-background:new 0 0 60 60;" xml:space="preserve">
<g>
	<path d="M55.382,9l-2,4h-19.79c-0.602-1.181-1.817-2-3.231-2h-7.799c-2.36,0-4.5,0.96-6.05,2.509l-2.967-2.179
		c-0.733-0.435-1.616-0.442-2.359-0.02C10.443,11.733,10,12.495,10,13.349v2.317c0,0.54,0.295,1.042,0.76,1.307l3.254,2.308
		C14.011,19.375,14,19.467,14,19.561v2.046c-7.983,0.93-14,9.732-14,17.372v0.949C0,41.651,1.513,43,3.443,43H11
		c0.466,0,0.883-0.183,1.175-0.516c0.661-0.754,0.502-1.952,0.283-3.61c-0.225-1.697-0.504-3.81,0.327-4.759
		c0.366-0.417,0.976-0.621,1.863-0.621h0.466l0.3-0.357c0.296-0.352,0.541-0.737,0.757-1.137h1.919c0.478,2.833,2.942,5,5.91,5
		c3.309,0,6-2.691,6-6v-1h0.883C32.602,30,34,28.602,34,26.883V24h5c2.414,0,4.434-1.721,4.899-4H60v-5v-2V9H55.382z M14.367,17.08
		L12,15.401v-2.052c0-0.175,0.11-0.264,0.175-0.301c0.066-0.037,0.199-0.087,0.266-0.052l2.83,2.082
		c-0.026,0.042-0.044,0.088-0.069,0.13c-0.135,0.227-0.259,0.461-0.373,0.702c-0.033,0.07-0.069,0.137-0.1,0.208
		c-0.135,0.306-0.255,0.619-0.354,0.942C14.373,17.066,14.369,17.073,14.367,17.08z M11.956,32.217C11.973,32.145,12,32.077,12,32
		c0-0.552-0.448-1-1-1s-1,0.448-1,1c0,0.552,0.448,1,1,1c0.057,0,0.107-0.023,0.162-0.033c-0.516,0.665-0.773,1.469-0.872,2.33
		C10.111,35.478,10,35.726,10,36c0,0.236,0.094,0.444,0.231,0.616c0.025,0.86,0.139,1.727,0.244,2.521
		c0.001,0.01,0.003,0.021,0.004,0.031C10.198,39.344,10,39.643,10,40c0,0.427,0.27,0.786,0.647,0.929
		c0,0.022,0.002,0.051,0.002,0.071H7H3.443c-0.101,0-0.203-0.011-0.304-0.028C3.623,40.901,4,40.503,4,40c0-0.552-0.448-1-1-1
		c-0.542,0-0.977,0.433-0.994,0.97C2.005,39.956,2,39.943,2,39.928v-0.949c0-0.778,0.083-1.574,0.224-2.374
		C2.407,36.84,2.68,37,3,37c0.552,0,1-0.448,1-1c0-0.552-0.448-1-1-1c-0.161,0-0.308,0.047-0.443,0.115
		c0.204-0.736,0.471-1.464,0.778-2.182C3.721,32.793,4,32.433,4,32c0-0.117-0.03-0.226-0.067-0.331
		c0.154-0.297,0.315-0.589,0.485-0.878C4.584,30.914,4.778,31,5,31c0.552,0,1-0.448,1-1c0-0.362-0.203-0.666-0.492-0.841
		c0.19-0.254,0.386-0.501,0.588-0.743C6.255,28.759,6.597,29,7,29c0.552,0,1-0.448,1-1c0-0.427-0.271-0.786-0.648-0.929
		c2.076-1.987,4.618-3.338,7.391-3.521L15,23.541v5.243c0,0.6-0.132,1.213-0.394,1.822L14.42,31.04
		c-0.087,0.161-0.174,0.322-0.279,0.472C13.273,31.576,12.547,31.818,11.956,32.217z M28,31c0,2.206-1.794,4-4,4s-4-1.794-4-4
		c0-0.551,0.449-1,1-1h0.5l2.7,3.6l1.6-1.2L24,30h4V31z M32,26.883C32,27.499,31.499,28,30.883,28H30h-9
		c-0.189,0-0.372,0.022-0.551,0.056c-0.056,0.01-0.109,0.026-0.164,0.04c-0.123,0.03-0.244,0.067-0.361,0.112
		c-0.057,0.022-0.112,0.044-0.167,0.07c-0.118,0.054-0.23,0.116-0.339,0.184c-0.042,0.026-0.085,0.048-0.125,0.076
		c-0.144,0.1-0.279,0.21-0.403,0.333c-0.022,0.021-0.039,0.046-0.06,0.068c-0.1,0.105-0.193,0.216-0.277,0.335
		c-0.033,0.047-0.062,0.096-0.093,0.145c-0.065,0.104-0.123,0.211-0.175,0.322c-0.025,0.054-0.05,0.107-0.072,0.162
		c-0.013,0.033-0.031,0.063-0.043,0.097h-1.285c0.013-0.071,0.015-0.143,0.026-0.215C16.966,29.452,17,29.117,17,28.784v-5.657
		c0-0.15-0.027-0.292-0.066-0.43c-0.009-0.034-0.019-0.066-0.031-0.099c-0.047-0.133-0.104-0.26-0.182-0.374
		c-0.003-0.004-0.006-0.007-0.009-0.011c-0.077-0.111-0.171-0.208-0.273-0.296c-0.026-0.022-0.051-0.044-0.078-0.064
		c-0.11-0.084-0.228-0.159-0.357-0.213c-0.002-0.001-0.003-0.002-0.004-0.003v-2.076c0-0.226,0.012-0.449,0.034-0.668l0-0.003
		c0.001-0.005,0.002-0.01,0.002-0.016c0.028-0.273,0.08-0.542,0.142-0.808c0.017-0.072,0.036-0.142,0.055-0.213
		c0.064-0.235,0.138-0.467,0.228-0.693c0.013-0.032,0.022-0.065,0.036-0.097c0.108-0.26,0.235-0.513,0.376-0.758
		c0.025-0.044,0.053-0.087,0.08-0.131c0.136-0.223,0.283-0.44,0.446-0.648c0.029-0.037,0.054-0.076,0.083-0.112l0.028-0.035
		C18.714,13.927,20.531,13,22.561,13h7.799c0.904,0,1.64,0.735,1.64,1.64V18v2v4V26.883z M39,22h-5v-2h7.829
		C41.416,21.164,40.304,22,39,22z M58,18H44H34v-3h18.382H58V18z M55.618,13l1-2H58v2H55.618z"/>
	<path d="M29.524,14H23.5c-3.584,0-6.5,2.916-6.5,6.5s2.916,6.5,6.5,6.5h6.024C30.338,27,31,26.338,31,25.524V15.476
		C31,14.662,30.338,14,29.524,14z M29,18h-7v2h7v2h-7v2h7v1h-5.5c-2.481,0-4.5-2.019-4.5-4.5s2.019-4.5,4.5-4.5H29V18z"/>
	<circle cx="9" cy="30" r="1"/>
	<circle cx="7" cy="32" r="1"/>
	<circle cx="7" cy="36" r="1"/>
	<circle cx="9" cy="34" r="1"/>
	<circle cx="5" cy="34" r="1"/>
	<circle cx="9" cy="38" r="1"/>
	<circle cx="7" cy="40" r="1"/>
	<circle cx="5" cy="38" r="1"/>
	<path d="M56,49v-1v-9.5V38h-0.033c-0.222-1.992-1.686-5-3.967-5s-3.746,3.008-3.967,5H48v0.5V48v1c-0.553,0-1,0.448-1,1
		s0.447,1,1,1h8c0.553,0,1-0.448,1-1S56.553,49,56,49z M54,40v6h-4v-6H54z M52,35c0.731,0,1.738,1.627,1.954,3h-3.907
		C50.262,36.627,51.269,35,52,35z M50,49v-1h4v1H50z"/>
	<path d="M44,49v-1v-9.5V38h-0.033c-0.222-1.992-1.686-5-3.967-5s-3.746,3.008-3.967,5H36v0.5V48v1c-0.552,0-1,0.448-1,1
		s0.448,1,1,1h8c0.552,0,1-0.448,1-1S44.552,49,44,49z M42,40v6h-4v-6H42z M40,35c0.731,0,1.738,1.627,1.954,3h-3.907
		C38.262,36.627,39.269,35,40,35z M38,49v-1h4v1H38z"/>
</g>
<g>
</g>
<g>
</g>
<g>
</g>
<g>
</g>
<g>
</g>
<g>
</g>
<g>
</g>
<g>
</g>
<g>
</g>
<g>
</g>
<g>
</g>
<g>
</g>
<g>
</g>
<g>
</g>
<g>
</g>
</svg>
