<?xml version="1.0" encoding="iso-8859-1"?>
<!-- Generator: Adobe Illustrator 19.0.0, SVG Export Plug-In . SVG Version: 6.00 Build 0)  -->
<svg version="1.1" id="Layer_1" xmlns="http://www.w3.org/2000/svg" xmlns:xlink="http://www.w3.org/1999/xlink" x="0px" y="0px"
	 viewBox="0 0 512.002 512.002" style="enable-background:new 0 0 512.002 512.002;" xml:space="preserve">
<g>
	<g>
		<path d="M268.142,221.455l-43.993-43.993c-3.286-3.284-8.609-3.284-11.893,0l-51.525,51.525c-1.576,1.576-2.462,3.716-2.462,5.945
			s0.886,4.369,2.462,5.945l43.993,43.993c1.642,1.642,3.795,2.463,5.947,2.463c2.152,0,4.304-0.821,5.947-2.463l51.525-51.525
			c1.576-1.576,2.462-3.716,2.462-5.945S269.719,223.031,268.142,221.455z M210.671,267.032l-32.102-32.102l39.634-39.633
			l10.104,10.106l-28.099,28.098c-3.284,3.284-3.284,8.607,0,11.891c1.643,1.643,3.795,2.463,5.947,2.463
			c2.151,0,4.304-0.821,5.947-2.463l28.099-28.099l10.105,10.105L210.671,267.032z"/>
	</g>
</g>
<g>
	<g>
		<path d="M410.137,37.934c0-2.23-0.886-4.369-2.462-5.945L378.149,2.463c-3.285-3.284-8.608-3.284-11.892,0l-11.119,11.119
			l-4.435-4.435c-3.285-3.284-8.608-3.284-11.892,0s-3.284,8.608,0,11.892l4.435,4.435L227.908,140.812
			c-1.542-1.393-3.543-2.176-5.629-2.176c-2.23,0-4.368,0.886-5.947,2.463l-92.676,92.676c-1.576,1.576-2.462,3.716-2.462,5.945
			s0.886,4.369,2.462,5.945c3.177,3.177,5.858,6.716,8.03,10.513c-11.461,2.734-21.629,9.651-28.381,19.649
			c-2.598,3.849-1.585,9.076,2.264,11.675c1.443,0.974,3.079,1.441,4.698,1.441c2.7,0,5.351-1.297,6.977-3.703
			c4.725-6.997,12.036-11.661,20.194-13.087c0.489,2.813,0.752,5.684,0.752,8.598c0,13.253-5.162,25.713-14.532,35.084
			c-0.104,0.103-0.214,0.221-0.312,0.33c-0.04,0.044-4.026,4.441-8.432,7.085c-3.896,2.336-5.23,7.345-3.015,11.31
			c3.265,5.847,1.391,16.649-0.26,26.179c-0.973,5.611-1.893,10.912-1.931,15.712c-0.313,39.707,18.723,74.483,70.237,128.314
			c4.398,4.596,10.319,7.164,16.674,7.235c0.089,0.001,0.177,0.001,0.265,0.001c6.239,0,12.095-2.424,16.514-6.842l49.887-49.887
			c4.016-4.017,6.072-9.569,5.639-15.232c-0.434-5.675-3.316-10.863-7.91-14.233c-28.288-20.756-55.669-49.221-47.8-66.934
			c1.815-3.649,9.741-8.733,16.502-12.084c5.022,3.061,10.82,4.784,16.789,4.874c0.164,0.002,0.327,0.003,0.491,0.003
			c9.023,0,17.742-3.718,23.988-10.245l15.469-16.166c15.446-16.144,15.725-41.696,0.636-58.174
			c-0.833-0.909-4.269-6.132-4.269-8.15c0-2.796,1.089-5.426,3.066-7.404l20.435-20.435c3.284-3.284,3.284-8.607,0-11.891
			l-21.217-21.217l80.722-80.724c3.284-3.284,3.284-8.607,0-11.891c-3.285-3.284-8.608-3.284-11.892,0l-80.719,80.72l-3.876-3.876
			L407.675,43.88C409.252,42.303,410.137,40.164,410.137,37.934z M212.033,403.776c11.941,14.504,27.819,27.359,39.034,35.588
			c0.866,0.636,1.053,1.497,1.089,1.954c0.035,0.45-0.019,1.316-0.764,2.061l-49.887,49.886c-1.256,1.256-2.972,1.926-4.701,1.916
			c-1.794-0.02-3.466-0.747-4.708-2.045c-48.074-50.235-65.846-81.824-65.571-116.554c0.027-3.42,0.831-8.059,1.683-12.972
			c1.566-9.031,3.279-18.946,1.626-27.956c24.922-16.23,57.594-15.025,81.311,2.443c-5.384,3.671-10.606,8.306-13.132,13.587
			c-0.026,0.054-0.052,0.108-0.075,0.163C191.193,366.753,195.936,384.225,212.033,403.776z M274.305,313.625l-15.469,16.166
			c-3.185,3.328-7.513,5.13-12.077,5.053c-4.605-0.07-8.839-1.991-11.921-5.412c-4.208-4.671-6.197-10.548-6.013-16.356
			c4.413,1.914,9.168,2.909,13.973,2.909c4.458,0,8.956-0.849,13.257-2.594c4.303-1.747,6.376-6.651,4.629-10.954
			c-1.746-4.302-6.647-6.376-10.954-4.629c-4.699,1.906-9.845,1.762-14.307-0.198c0.169-0.175,0.321-0.36,0.496-0.53l19.779-19.202
			c2.495-2.422,5.752-3.741,9.211-3.741c0.133,0,0.268,0.002,0.401,0.006c3.609,0.105,6.938,1.63,9.376,4.293
			C283.818,288.403,283.649,303.86,274.305,313.625z M288.487,225.144l-14.488,14.49c-4.78,4.779-7.563,11.019-7.943,17.712
			c-0.083-0.003-0.165-0.011-0.249-0.013c-8.18-0.242-15.943,2.77-21.822,8.479l-19.779,19.202
			c-9.418,9.144-13.426,21.711-11.911,33.782c-11.481-6.525-24.357-10.437-37.723-11.319c-8.856-0.584-17.673,0.188-26.171,2.201
			c4.315-8.906,6.606-18.738,6.606-28.927c0-14.91-4.88-29.072-13.883-40.66l81.155-81.155L288.487,225.144z M257.45,170.322
			l-17.635-17.634L372.204,20.301l17.635,17.634L257.45,170.322z"/>
	</g>
</g>
<g>
	<g>
		<circle cx="150.293" cy="347.436" r="8.409"/>
	</g>
</g>
<g>
	<g>
		<circle cx="207.876" cy="448.991" r="8.409"/>
	</g>
</g>
<g>
</g>
<g>
</g>
<g>
</g>
<g>
</g>
<g>
</g>
<g>
</g>
<g>
</g>
<g>
</g>
<g>
</g>
<g>
</g>
<g>
</g>
<g>
</g>
<g>
</g>
<g>
</g>
<g>
</g>
</svg>
